<svg xmlns="http://www.w3.org/2000/svg" viewBox="0 0 290 325" width="290" height="325">
  <defs>
    <linearGradient id="redGrad" x1="0%" y1="0%" x2="0%" y2="100%">
      <stop offset="0%" stop-color="#ff1238"/>
      <stop offset="100%" stop-color="#d60024"/>
    </linearGradient>
    <linearGradient id="grayGrad" x1="15%" y1="10%" x2="85%" y2="90%">
      <stop offset="0%" stop-color="#666c71"/>
      <stop offset="55%" stop-color="#4e5359"/>
      <stop offset="100%" stop-color="#32373c"/>
    </linearGradient>
  </defs>
  <path d="M 145.00 4.25 L 130.00 7.50 L 80.75 22.50 L 60.25 27.50 L 9.00 43.50 L 7.50 45.00 L 7.25 111.75 L 8.50 147.75 L 12.50 168.75 L 20.50 193.75 L 30.50 214.75 L 37.75 225.75 L 37.50 226.75 L 58.75 254.00 L 77.00 272.25 L 93.00 286.00 L 121.00 305.00 L 138.75 314.25 L 146.25 316.75 L 147.75 313.25 L 145.75 299.00 L 143.75 295.25 L 55.25 212.50 L 41.25 197.50 L 79.50 181.25 L 117.00 213.00 L 119.75 214.00 L 187.00 164.00 L 191.75 144.00 L 189.25 142.50 L 98.25 142.50 L 97.50 145.75 L 100.75 156.75 L 102.75 161.00 L 106.00 163.25 L 117.00 166.25 L 150.00 171.50 L 81.75 171.50 L 60.25 173.50 L 34.50 178.50 L 31.25 158.00 L 31.25 143.75 L 36.25 127.75 L 40.25 121.50 L 47.25 114.50 L 48.25 110.50 L 34.25 109.50 L 27.50 106.50 L 25.50 102.25 L 26.00 96.50 L 29.25 94.25 L 35.50 93.25 L 48.75 94.25 L 52.50 96.75 L 53.00 103.25 L 58.00 103.25 L 63.00 90.00 L 71.00 75.50 L 77.75 69.25 L 87.00 65.25 L 111.25 62.25 L 160.00 61.25 L 190.00 63.25 L 201.50 65.25 L 209.00 68.25 L 217.50 76.50 L 225.50 91.50 L 228.50 101.50 L 230.00 103.25 L 234.25 103.00 L 234.00 96.75 L 239.50 94.25 L 254.00 93.25 L 259.75 95.25 L 261.50 97.25 L 261.50 103.25 L 259.25 106.50 L 250.25 110.50 L 240.50 111.75 L 240.50 113.00 L 248.25 119.25 L 252.00 124.00 L 255.50 123.25 L 280.75 107.00 L 281.25 104.75 L 280.50 46.00 L 279.50 43.75 L 227.00 27.50 L 203.75 21.50 L 189.75 16.50 Z" fill="url(#redGrad)"/>
  <path d="M 67.50 106.50 L 67.75 108.50 L 70.00 109.00 L 76.75 108.25 L 219.00 108.25 L 219.25 104.75 L 215.00 92.25 L 210.00 83.00 L 200.75 75.50 L 190.75 72.50 L 182.50 71.50 L 132.25 70.50 L 95.75 72.50 L 86.00 75.50 L 80.00 79.75 L 75.75 85.00 L 71.50 93.00 Z" fill="url(#redGrad)"/>
  <path d="M 44.75 131.75 L 42.75 137.75 L 43.50 146.75 L 46.00 149.00 L 53.25 152.25 L 63.50 154.25 L 92.00 157.25 L 92.25 153.00 L 89.25 145.00 L 86.00 139.75 L 83.00 137.75 L 59.25 132.50 L 50.50 129.50 L 48.50 129.50 Z" fill="url(#redGrad)"/>
  <path d="M 242.50 128.75 L 225.75 130.50 L 214.00 133.50 L 207.25 136.50 L 200.75 144.00 L 198.50 149.25 L 197.50 159.25 L 199.00 159.50 L 221.75 143.25 L 241.75 131.25 Z" fill="url(#redGrad)"/>
  <path d="M 280.25 125.00 L 274.25 127.50 L 269.50 132.75 L 265.75 134.75 L 220.75 176.75 L 187.75 209.75 L 182.75 216.00 L 180.75 217.00 L 141.75 260.00 L 141.75 261.25 L 131.75 271.75 L 130.75 274.25 L 128.75 275.00 L 128.75 276.50 L 126.75 278.50 L 127.25 279.75 L 145.75 297.50 L 148.75 315.25 L 148.00 317.25 L 150.00 316.25 L 150.50 314.75 L 152.75 315.25 L 179.50 300.25 L 180.25 299.25 L 178.75 298.50 L 189.00 292.00 L 181.00 298.00 L 181.25 299.25 L 209.75 278.00 L 232.00 256.00 L 249.00 234.00 L 254.00 225.50 L 252.75 224.25 L 254.00 220.75 L 256.75 216.75 L 257.25 218.25 L 255.00 221.00 L 255.25 222.25 L 256.25 221.75 L 263.25 207.75 L 262.00 206.75 L 262.25 208.75 L 261.00 209.00 L 260.25 212.75 L 259.00 213.00 L 268.75 188.50 L 269.25 191.25 L 268.00 191.75 L 268.00 194.00 L 267.00 194.50 L 267.25 197.00 L 266.00 197.50 L 265.25 202.25 L 263.00 204.75 L 263.25 206.25 L 264.25 205.50 L 271.25 187.00 L 270.00 183.00 L 271.00 183.00 L 271.25 185.25 L 272.25 183.50 L 271.00 182.25 L 271.50 179.00 L 272.25 181.75 L 275.25 171.75 L 274.00 172.00 L 274.00 175.25 L 273.00 175.00 L 272.75 173.25 L 276.75 155.25 L 278.50 130.50 L 279.25 145.25 L 280.25 140.25 L 279.50 138.00 Z" fill="url(#grayGrad)"/>
</svg>